<svg xmlns="http://www.w3.org/2000/svg" viewBox="0 0 103 103" width="103" height="103">
	<style>
		tspan { white-space:pre }
		.shp0 { opacity: 0.2;fill: #000000 } 
		.shp1 { fill: #ffffff } 
	</style>
	<g id="CONTENT">
		<g id="Video Presentation">
			<g id="Play Video">
				<path id="circle" class="shp0" d="M52 2C79.61 2 102 24.39 102 52C102 79.61 79.61 102 52 102C24.39 102 2 79.61 2 52C2 24.39 24.39 2 52 2Z" />
				<path id="icon-play" class="shp1" d="M46.93 68.82C46.64 68.82 46.34 68.76 46.06 68.63C45.34 68.29 44.87 67.56 44.87 66.76L44.87 37.24C44.87 36.44 45.34 35.71 46.06 35.37C46.78 35.03 47.64 35.14 48.25 35.65L65.97 50.42C66.44 50.81 66.71 51.39 66.71 52C66.71 52.61 66.44 53.19 65.97 53.58L48.25 68.34C47.88 68.66 47.41 68.82 46.93 68.82ZM48.99 41.63L48.99 62.36L61.43 52L48.99 41.63ZM51.94 87C46.07 87 40.17 85.54 34.83 82.53C33.84 81.97 33.49 80.71 34.05 79.72C34.6 78.73 35.86 78.38 36.85 78.94C48.87 85.7 64.08 83.61 73.85 73.85C85.89 61.8 85.89 42.2 73.85 30.15C61.8 18.1 42.2 18.1 30.15 30.15C18.1 42.2 18.1 61.8 30.15 73.85C30.95 74.65 30.95 75.95 30.15 76.76C29.35 77.56 28.04 77.56 27.24 76.76C13.58 63.1 13.58 40.89 27.24 27.24C40.89 13.58 63.1 13.58 76.76 27.24C90.41 40.89 90.41 63.1 76.76 76.76C70.03 83.48 61.03 87 51.94 87Z" />
			</g>
		</g>
	</g>
</svg>