<svg xmlns="http://www.w3.org/2000/svg" viewBox="0 0 23 23" width="23" height="23">
	<style>
		tspan { white-space:pre }
		.shp0 { fill: #c7b299 } 
	</style>
	<g id="CONTENT">
		<g id="Excellent for Mobile Devices">
			<g id="Features">
				<g id="Arrows">
					<path id="01" class="shp0" d="M11.5 1C5.7 1 1 5.7 1 11.5C1 17.3 5.7 22 11.5 22C17.3 22 22 17.3 22 11.5C22 5.7 17.3 1 11.5 1ZM14.79 12L10.25 16.54C9.98 16.81 9.53 16.81 9.26 16.54C8.99 16.26 8.99 15.82 9.26 15.55L13.31 11.5L9.26 7.45C8.99 7.18 8.99 6.74 9.26 6.46C9.53 6.19 9.98 6.19 10.25 6.46L14.79 11C14.93 11.14 15 11.32 14.99 11.5C14.99 11.68 14.93 11.86 14.79 12Z" />
				</g>
			</g>
		</g>
	</g>
</svg>