<svg xmlns="http://www.w3.org/2000/svg" viewBox="0 0 24 24" width="24" height="24">
	<style>
		tspan { white-space:pre }
		.shp0 { fill: #c7b299 } 
	</style>
	<g id="CONTENT">
		<g id="Recent Posts">
			<g id="Arrows">
				<path id="right" class="shp0" d="M15.42 11.43L10.64 6.66C10.36 6.37 9.89 6.37 9.6 6.66C9.32 6.95 9.32 7.42 9.6 7.7L13.86 11.96L9.6 16.21C9.32 16.5 9.32 16.96 9.6 17.25C9.89 17.54 10.36 17.54 10.64 17.25L15.42 12.48C15.56 12.33 15.63 12.15 15.63 11.96C15.63 11.77 15.56 11.58 15.42 11.43ZM12.01 1.03C5.95 1.03 1.03 5.94 1.03 12.01C1.03 18.08 5.95 22.99 12.01 22.99C18.08 22.99 23 18.08 23 12.01C23 5.94 18.08 1.03 12.01 1.03ZM12.01 21.52C6.77 21.52 2.5 17.25 2.5 12.01C2.5 6.77 6.77 2.5 12.01 2.5C17.26 2.5 21.52 6.77 21.52 12.01C21.52 17.25 17.26 21.52 12.01 21.52Z" />
			</g>
		</g>
	</g>
</svg>